<svg xmlns="http://www.w3.org/2000/svg" viewBox="0 0 600 800" preserveAspectRatio="xMidYMid slice">
  <defs>
    <linearGradient id="bg" x1="0" x2="0" y1="0" y2="1"><stop offset="0%" stop-color="#1e3a8a"/><stop offset="100%" stop-color="#0a0a18"/></linearGradient>
    <linearGradient id="floor" x1="0" x2="0" y1="0.5" y2="1"><stop offset="0%" stop-color="#000" stop-opacity="0"/><stop offset="100%" stop-color="#000" stop-opacity="0.5"/></linearGradient>
  </defs>
  <rect width="600" height="800" fill="url(#bg)"/>
  <g fill="none" stroke="#22d3ee" stroke-opacity="0.18" stroke-width="1.5">
    <path d="M-50 180 Q 150 120 300 180 T 650 180"/>
    <path d="M-50 240 Q 150 180 300 240 T 650 240"/>
    <path d="M-50 300 Q 150 240 300 300 T 650 300"/>
    <path d="M-50 360 Q 150 300 300 360 T 650 360"/>
    <path d="M-50 420 Q 150 360 300 420 T 650 420"/>
    <path d="M-50 480 Q 150 420 300 480 T 650 480"/>
  </g>
  <rect width="600" height="800" fill="url(#floor)"/>
</svg>
