<?xml version="1.0" encoding="utf-8"?>
<!-- Generator: Adobe Illustrator 24.0.1, SVG Export Plug-In . SVG Version: 6.00 Build 0)  -->
<svg version="1.1" id="Layer_1" xmlns="http://www.w3.org/2000/svg" xmlns:xlink="http://www.w3.org/1999/xlink" x="0px" y="0px"
	 viewBox="0 0 1306.4 487.2" style="enable-background:new 0 0 1306.4 487.2;" xml:space="preserve">
<path d="M548.1,237.9c-0.4-0.2-0.7-0.5-1.1-0.7c-0.9-0.4-1.7-0.7-2.6-1.1c-5.6-2.5-10.9-5.5-16.4-8.2c-7.6-3.8-15.2-7.6-22.7-11.4
	c-1.7-0.8-3.4-1.7-5-2.5c-2.7-1.4-5.5-2.7-8.2-4c-1.4-0.7-2.8-1.5-4.2-2c-1.2-0.5-2.2-0.9-3.2-1.9c-0.4-0.4-0.8-0.9-1.3-1.2
	c-0.2-0.2-0.5-0.3-0.7-0.4c-1-0.6-2-1.3-2.8-2.1c0.2,0.5,0.5,1,0.7,1.6c0.2,0.4,0.4,0.8,0.4,1.3c0.1,0.4,0.1,0.7,0.1,1.1
	c0,1.2,0.1,2.4,0,3.5c-0.1,1-0.5,1.9-0.8,2.8c-0.7,2-1.6,3.9-2.8,5.6c-2.4,3.5-7.9,5.3-11.9,5.3c-34.2,0-68.6-0.1-103.1,0
	c-3.3,0-6.7-0.2-10.4-0.5c-0.2,0-0.2-0.1-0.1-0.3c15.8-22.4,23.3-52.7,28.1-79.5c0-0.5,0.1-1.8,0.6-1.8c3.1,0,5.5,0,8.6,0l13.3,0.1
	l46-0.1c1.3,0,2.9,0,4.5,0.1c3.8,0.2,8.1,0.8,10.7,2.4c6.5,3.9,3.3,10.4,3.4,16.3c0,0.6,0,1.3-0.1,1.9c-0.1,0.5-0.4,0.9-0.6,1.4
	c-2,4.2-2.2,9.2-4.6,13.3c1.1-1.4,2.3-2.9,3.4-4.3c0.4-0.5,0.9-1.1,1.3-1.6c0.7-0.8,1.5-1.6,2.3-2.4c14.7-14.4,30.3-27.9,45.4-42
	c5.1-4.7,10.8-7.7,16.5-11.6c1.5-1,3-2.1,4.7-2.5c-19.8,0-39.5,0-59.3,0c-18.3,0-39,0-58.3,0h-8.3c-2,0-3.9,0-5.9,0l-14.5,0
	c-10.6,0-21.1-0.3-31.6-0.2c-4.8,0-7.5,3.3-7.6,8.1c-0.1,2.7-1.3,12.3-1.6,14.8c-0.2,2-0.5,4-0.7,5.9c-1.9,13.9-5.4,27.3-10.5,40.3
	c-3.4,8.6-7.4,16.2-12.1,23c-2,2.9-4,5.4-5.9,7.3c-6.9,7.2-15.2,11.1-25.1,11.9c-2.6,0-37.9,0-65.4,0c0,0,0,0,0,0h-6.2
	c-6,0-11.7,0-16.6,0h-18.3c-2.6,0-11.9,0-14.1,0c-3.5,0-6.4,0-8.2,0c-0.2,0-0.3-0.1-0.3-0.3l0-77.7c0-1.2,1.8-3.4,3-3.4l33.1-0.1
	l46-0.1c4.3,0,11.5,0.2,15.2,2.5c3.9,2.4,4.5,5.9,4.4,10.5c-0.2,6.4-0.5,12.6-2.3,18.9c-0.5,1.7-1,3.5-2.2,4.8
	c1.1-1.2,2.2-2.4,3.3-3.7c2.6-2.9,5.2-5.9,6.8-9.5c2.2-4.9,8.7-9.2,12.7-12.8c5.4-5,10.8-10,16.2-14.9c5.3-4.9,10.8-9.6,15.8-14.8
	c1.4-1.5,2.2-3.1,4-4.2c2.1-1.3,4.1-2.5,6.2-3.8c0.5-0.3,1.1-0.7,1.7-0.9c1.9-0.7,4-0.2,5.9-1c-1,0.4-3.1-0.2-4.2-0.2
	c-1.6-0.1-3.3-0.1-4.9-0.2c-3.2-0.1-6.3-0.1-9.5-0.1c-4,0-8,0.3-12,0.3c-9.5,0-19,0-28.5,0c-19.8,0-39.5,0-59.3,0h-8.3
	c-2,0-3.9,0-5.9,0c-1.7,0-3.3,0-4.9,0H175c-19.1,0-36,0-46.6,0c0,0-0.1,0-0.1,0c-10.5,0.1-21.1-0.7-31.6-0.3
	c-4.9,0.2-9.7,1-14.5,0.9c-2.9,0-5.8-0.1-8.7-0.1c-6.7-0.1-13.4-0.2-20.1,0.7c-0.7,0.1-1.6,0.1-2,0.7c3.8,0,7.5,1,11.3,1.2
	c1.6,0.1,3.2,0,4.7,0.1c5.1,0.3,9.9,3,15,2.7c1.3-0.1,2.7-0.4,4-0.4c2.8-0.1,5.5,1.1,8.2,1.8c3.1,0.9,6.9,0.6,9.6,2
	c3.1,1.6,6.4,2.9,9.7,4c3.9,1.4,7.9,3,11.3,5.4c2.6,1.8,4,4.9,4,8.1l0,10.6l0,1.6c0,3.1,0.1,128.6,0.1,180.1l-0.1-2.9l0.1,8.3l0,7.2
	c0.1,1.9-0.9,3.4-2.3,4.6c-0.7,1.2-1.6,2.3-2.8,3.2c-1.9,1.4-4.3,2.1-6.6,2.6c-3.6,0.7-7.1,1.3-10.7,2.1c-0.1,0-0.1,0-0.2,0
	c-5.2,2-10.2,4.3-15.3,6.5c-3.9,1.6-7.9,3.3-12,3.8c20.4,0,47.1-1.8,67.5-1.6c0,0,37.9,2.7,56,0.9c0.4,0,0.7-0.1,1.1-0.1
	c2.1-0.2,4.1-0.4,6.2-0.6l10.8-1.1c-2.6-0.1-5.2-1.5-7.8-2c-1.6-0.3-3.3-0.1-4.9-0.2c-3.6-0.2-7-1.3-10.4-2.5
	c-6.9-2.3-13.5-4.7-20.4-6.9c-4.4-1.4-11.8-3.7-12.3-9.3c0,0-0.1-79.5-0.1-86.9c0-0.2,0.3-0.2,0.5-0.2c1.1,0,5.3,0,11.1,0
	c1.2,0,9.4,0,10.7,0h18.3c3,0,6.3,0,9.8,0v0c19.1,0,53.7,0,57.6,0c3.4,0,14.8,0,16.9,0c4,0.1,15,2.9,16.6,3.7
	c14.5,6.6,23.5,21,29.7,36c3.6,8.7,6.5,18.2,8.6,28.5c1.1,5.2,2.1,10.7,3,16.5c0.4,2.7,1.7,18,2.2,21.5c0.5,4.4,4.7,4.9,8.2,4.9
	c4.6,0,9.3,0,13.9,0.1c1.1,0,2.3-0.2,3.4-0.2h19.5c1.9,0,12,0.1,14,0.1h8.3c8,0,16,0,24,0c16.4,0,32.7,0,49.1,0c6.5,0,13,0,19.5,0
	c3.3,0,18.5,1,23,0.3c-1.8-0.8-3.2-2.4-4.9-3.4c-1-0.6-2.2-0.9-3.2-1.4c-2.7-1.3-4.7-3.4-6.8-5.6c-1.2-1.2-2.4-2.3-3.6-3.5
	c-7.3-6.9-14.7-13.7-22.1-20.5c-3.7-3.4-7.4-6.8-11-10.2c-1.3-1.2-2.6-2.4-3.9-3.6c-2.2-2-4.4-4.5-7.1-6c-0.5-0.3-1.1-0.5-1.7-0.8
	c-2.4-1.2-4.3-3.4-6.9-4.1c1.3,1.9,2.5,3.8,3.8,5.7c0.5,0.7,0.9,1.4,1.2,2.2c0.9,3,0.8,5.6,0.9,8.7c0.1,4.6-0.5,8.1-4.4,10.5
	c-3.7,2.3-10.9,2.5-15.2,2.5l-55.4,0.1c-4.3,0.1-10.6,0.1-11.6,0.1c-0.3,0-1.2-4.1-1.4-4.7c0-0.7-1.1-4.9-1.4-7
	c-0.3-1.9-0.7-3.8-1.2-5.7c-1.3-5.4-2.6-10.9-4.2-16.3c-2.5-8.5-5.5-17.1-9.1-25.7c-3.2-7.8-7.3-15-12.1-21.5
	c-0.1-0.1-0.1-0.2-0.1-0.4c0-0.2,0.2-0.4,0.4-0.4c36.9-0.2,73.7-0.2,110.6,0c2.5,0,5.2,0.2,7.5,0.9c5,1.5,8.3,4.7,9.7,9.5
	c0.2,0.9,0.7,1.8,0.8,2.7c0.2,1.1,0.1,2.3,0.1,3.4c0,1.2-0.2,2.4-1,3.3c2.2-1,4.4-2.1,6.5-3.2c1.1-0.6,2.2-0.9,3.3-1.5
	c1.2-0.7,2.4-1.3,3.7-2c2.8-1.4,5.6-2.9,8.4-4.3c5.6-2.9,11.2-5.7,16.9-8.6c6.7-3.4,13.4-6.7,20.1-10.1c1.4-0.7,2.9-1.4,4.3-2.1
	c1-0.6,1.8-1.6,3-2c0.3-0.1,0.7-0.2,1-0.3c1.5-0.5,2.7-1.9,4.3-2.1C550.4,239.5,549.3,238.7,548.1,237.9z"/>
<path d="M616.5,331.6l0.2,0C616.6,331.6,616.5,331.6,616.5,331.6z"/>
<path d="M1265.1,365.8c-6.6-1.2-13.5-1.4-19.8-3.8c-2.8-1-5.4-2.4-8-3.8c-1.5-0.8-4-2.2-3.9-4.3c-0.4-0.6-0.6-1.4-0.4-2.2
	c0.6-3.5,2.2-6.8,4-9.8c1.8-3.1,3.6-6.1,5.2-9.2c2-4,5-7.7,7.3-11.6c0.6-1.5,1.2-3,1.8-4.5c1.5-4,2.9-8,5.1-11.7
	c3.2-5.5,6.2-9.8,7.8-16c1.4-5.7,2.8-11.4,4.3-17.1c-3.7,3.5-5,9.1-8.9,12.3c-3.8,3.1-7.3,5.9-10.6,9.7c-3.7,4.1-7.1,8.5-11,12.5
	c-7.3,7.5-16.2,13.2-23.9,20.2c-3.6,3.3-6.6,6.9-11.1,9c-4.5,2.1-9.6,3-14.6,2.8h-78c-3.3,0-4.1-0.6-4.1-3.9l-0.1-78.2
	c0-0.1,0.2-33.4,0.2-33.5c-0.1-18.7,0-37.4,0-56.1c0-5.5,0-11,0-16.5c0-5.5-1.3-12.6,1-17.7c1.4-3.2,4.3-5.5,7.3-7.2
	c5.6-3.2,11.6-6.3,18-7.4c3-0.5,6.1-0.7,9.2-0.8c0.4-0.1,0.8-0.2,1.2-0.2c2.9-0.4,6.1-0.5,8.1-2.6c-4.5,0-9.1,0.1-13.6-0.5
	c-1.9-0.2-3.7-0.5-5.5-0.7h-14.4c-20.8,0-42.1,3.2-62.7-0.5c-11.8,0.3-23.7,0.6-35.5,0.5c2.5,0,5,0.8,7.4,1.7
	c2.2,0.8,4.5,1.6,6.7,2.4c2.1,0.5,4.3,0.9,6.4,1.2c7.1,1,14.2,1.7,20.9,4.1c2.6,0.9,5.2,2.2,7.1,4.3c2.9,3.4,2.7,7.2,2.4,11.4
	c-0.3,4.1-0.2,8.2-0.2,12.3l0.1-2.5c0,22.1,0,44.2,0,66.3c0,23.7,0,47.3-0.1,71c0,13.8,0,27.7,0,41.5c0,0.5,0,1,0,1.6l0,1.6l0,9.8
	c0.1,0.2,0.1,0.4,0.1,0.6c0,2.5,0.1,5-1.4,7.1c-0.8,1.2-1.9,2.2-2.9,3.2c-1.2,1.1-2.5,2.2-3.9,3.1c-2.8,1.8-10.1,8.3-13.2,9
	c-0.5,0.1-9.1-5.8-10.8-7.2c-1.2-0.9-2.3-2-3.3-3.2c-12.3-10-18.8-26-24.6-41l-72.8-189.6c-1.1-2.8-2.3-5.7-4.7-7.4
	c-2.1-1.5-4.8-1.9-7.4-2c-0.3,0.1-0.5,0.2-0.9,0.1c-16-0.1-32,0.7-48,1.1c-2.6,0.5-13.4,0.6-16.1,0c-5.7,0-11.4,0.2-17.1,0.4
	c-5.2,0.2-10.4,0.4-15.6,0.3c-5.2-0.1-10.3-0.3-15.5-0.5c-5.2-0.2-10.4-0.1-15.6,0.1c-3.5,0.2-7,0.4-10.5,0.5
	c30.4,5.8,63,1.1,91.7,12.7c1.3,0.5,2.7,1.2,3.3,2.5c0.6,1.3,0.1,2.9-0.4,4.3c-17.3,46-65,175.8-72.5,194.1
	c-2.8,6.8-6.5,13-11.2,18.7c-5.5,6.7-12.8,13.1-20.8,16.5c-0.1,0-4.8-3.1-6.3-4.2c-3.7-2.6-7.9-4.2-11.1-7.3
	c-2.3-2.2-4.6-4.6-6.5-7.3c-4.3-5-8.6-10.5-12.2-14.9c-5.2-6.8-44-60.2-44-60.2l10.7-3.1c0,0,0,0,0,0c0.7-0.2,1.4-0.5,2-0.7
	c30.4-11.4,42.6-36.8,42.6-36.8s18.5-35.6-2.6-73.2c-17.2-30.6-57.2-39.8-72.7-42.8c-8.3-1.6-17.2-1.6-25.7-1.9
	c-20.5-0.9-41-1-61.5-0.8c-4.9,0.1-9.8,0.1-14.7,0c-5.8,0.5-11.7,0.7-17.6,0.8c-2.2,0-4.4,0-6.5,0c-1.6,0.1-3.3,0.3-4.9,0.5
	c-2.3,0.3-22.8,1-23.9,1.3c-1.4,0.4-2.8,0.8-4.3,0.8c-0.3,0-0.6-0.1-0.9-0.2c-0.8,0.1-1.5,0.1-2.3,0c-0.1,0.4,0.4,0.6,0.8,0.7
	c5.3,1,10.6-0.6,15.8,1.5c1.4,0.6,2.7,1.2,4.1,1.8c0.3,0.1,0.6,0.2,0.9,0.4c1.1,0.3,2.3,0.5,3.4,0.7c2.3,0.4,4.5,1,6.7,1.7
	c4.6,1.3,9.2,2.3,13.5,4.3c2.7,1.3,5.2,3.2,6.5,5.9c0.6,1.1,0.9,2.3,1.2,3.5c0.8,1.5,1.3,3.2,1.2,5l0,10.6c0,0,0,1.6,0,1.6
	c0,11.1,0,22.3,0,33.4c0,23.2,0,46.3,0.1,69.5c0,30.2,0,60.5,0,90.7c0,2.4,0,4.8-0.9,7c-1,2.7-3.2,4.8-5.6,6.3
	c-3.3,2.1-7.4,3.5-11.2,4.5c-1.8,0.5-3.6,0.8-5.3,1.4c-3.2,1.1-6.3,2.3-9.7,2.6c-0.2,0.1-0.4,0.3-0.6,0.4c-0.5,0.3-1,0.4-1.5,0.6
	c-1.3,0.3-2.6,0.6-3.8,0.8c3-0.1,6-0.2,8.9-0.2c1.4,0,2.8-0.1,4.3,0c2.9,0.1,5.8,0.7,8.7,0.6c1.4-0.1,2.7-0.1,4.1-0.1
	c5.9,0.1,11.8,0.1,17.6,0.2l12.7,0.1h1c11.5-0.1,55.7-0.9,58.4-0.6c1.6,0.2,6.4-0.4,7.6,0.4c-1.1-0.7-2.5-1-3.8-1.3l-19.8-3.9
	c-8.4-1.7-19.1-4.8-23.5-13.1c-2.4-4.6-2.2-10-2-15.1c0.2-5.5,0.1-11,0.1-16.5c0-13.6,0-27.3,0-40.9c0-2.1-0.1-3.1,1.4-3.1
	c0,0,23.6-0.1,49.4-0.1c0,0,6.6-0.7,13.3,8.2c11.9,15.8,23.6,31.9,34.9,48.1c3.6,5.1,9,11.2,10.2,17.5c0.4,1.9,0.2,4-1,5.6
	c-0.9,1.3-2.3,2.1-3.7,2.8c-5.7,3.1-11.6,5.5-17.9,7.1c-2,0.5-3.6,1.6-5.4,2.2c-2,0.7-4.1,0.9-6.2,0.9c-0.3,0-0.6,0-0.8-0.1
	c-1.5,0.5-3.1,1.1-4.6,1.6c17.9,0.3,35.7,0.1,53.6,0.1c17.2,0,34.4,0.5,51.6-0.4c34.5-0.1,69.1-0.6,103.6-1.4
	c-9.5-3.2-19.8-4-29.2-7.6c-9.4-3.6-18.3-11.3-19.1-21.3c-0.4-5.1,1.3-10.1,3-14.9c4.9-13.8,10.4-26.9,15.3-40.6
	c0.8-2.2,2.1-6.1,3.5-6.9c1.9-1.1,3.7-1,5.9-1l92.4,0.2c1.4,0,2-0.2,3.2,0.4c1.5,0.6,2.1,3.1,2.7,4.8l22.2,54.9
	c1.9,5,3.2,11.1,0.3,15.5c-1.9,2.8-5.2,4.2-8.3,5.3c-14,5.3-28.4,9.3-43.1,11.9c3.9-0.7,9.1,0.2,13.2,0.3c4.8,0.1,9.5,0.1,14.3,0.2
	c9.5,0.1,19.1,0.1,28.6,0.1c18.6-0.1,37.2-0.2,55.9-0.8c0.8,0,1.5,0,2.3-0.1c2.6-0.1,5.2-0.2,7.8-0.3c1.8,0.1,3.6,0.1,5.4,0.1
	c3.5,0,7.1,0.1,10.6,0.1l0.1,0c10.6,0,27.5,0,46.7,0h0.7l43.5,0c1.3,0,2.6,0,3.8,0c13,0,26.1,0,39.1,0c10.1,0,20.1-0.1,30.2-0.1
	c6.8,0,13.5,0.7,20.3,1.1c3.4,0.2,6.8,0.4,10.1,0.3c2.7-0.1,5.4-0.9,8.2-0.9C1269.8,366.8,1267.4,366.2,1265.1,365.8z M621,255.3
	h-14.7c-1.6,0-2.1-1.3-2.3-2.4c-0.4-1.9,0.4-113.7,0.4-113.7c0.1-4.9,0.4-9.9,4-10.1c8.6-0.5,28.7-1,40.7,0.1
	c31.5,2.8,47.5,14,59.3,31.3c9.2,13.6,9.7,27.5,9.9,34.2c0.2,6.7-0.1,19.5-7.7,32.6c-6.9,12-30,26.8-41.6,27.6
	C661.6,255.5,647.1,255.3,621,255.3z M947.6,255.3h-79.4c-3.3,0-4.8-2.4-3.6-5.5l38.1-102.7c0.7-1.8,3.1-1.8,3.8-0.1l42.8,105.5
	C950.1,254.6,950.3,255.3,947.6,255.3z"/>
</svg>
